<svg width="28" height="28" viewBox="0 0 28 28" fill="none" xmlns="http://www.w3.org/2000/svg">
<g clip-path="url(#clip0_126_7703)">
<path d="M6.25741 16.3333L8.80287 10.7333V9.33331H4.98469V10.7333H7.53014L4.98469 16.3333M11.3483 16.3333L13.8938 10.7333V9.33331H10.0756V10.7333H12.621L10.0756 16.3333M16.4392 16.3333L18.9847 10.7333V9.33331H15.1665V10.7333H17.712L15.1665 16.3333M26.621 2.33331C25.221 2.33331 24.0756 3.59331 24.0756 5.13331C24.0756 6.11331 24.5847 7.09331 25.3483 7.51331V23.3333H21.5301V20.5333C22.2938 20.5333 22.8029 19.9733 22.8029 19.1333V6.53331C22.8029 5.69331 22.2938 5.13331 21.5301 5.13331H16.6938C15.6756 3.45331 13.8938 2.33331 11.9847 2.33331C10.0756 2.33331 8.29378 3.45331 7.27559 5.13331H2.43923C1.67559 5.13331 1.1665 5.69331 1.1665 6.53331V19.1333C1.1665 19.9733 1.67559 20.5333 2.43923 20.5333V30.3333H21.5301V26.1333H25.3483C26.7483 26.1333 27.8938 24.8733 27.8938 23.3333V7.51331C28.6574 7.09331 29.1665 6.11331 29.1665 5.13331C29.1665 3.59331 28.021 2.33331 26.621 2.33331ZM16.4392 26.1333H7.53014V23.3333H16.4392V26.1333ZM20.2574 17.7333H3.71196V7.93331H20.2574V17.7333Z" fill="#27272F"/>
</g>
<defs>
<clipPath id="clip0_126_7703">
<rect width="28" height="28" fill="white"/>
</clipPath>
</defs>
</svg>
